<?xml version="1.0" encoding="utf-8"?>
<svg xmlns="http://www.w3.org/2000/svg" xmlns:xlink="http://www.w3.org/1999/xlink" style="margin: auto; background: rgb(255, 255, 255); display: block; shape-rendering: auto;" width="204px" height="204px" viewBox="0 0 100 100" preserveAspectRatio="xMidYMid">
<g transform="rotate(0 50 50)">
  <rect x="48.5" y="25.5" rx="1.5" ry="2.1" width="3" height="7" fill="#71c0fe">
    <animate attributeName="opacity" values="1;0" keyTimes="0;1" dur="0.9803921568627451s" begin="-0.8912655971479501s" repeatCount="indefinite"></animate>
  </rect>
</g><g transform="rotate(32.72727272727273 50 50)">
  <rect x="48.5" y="25.5" rx="1.5" ry="2.1" width="3" height="7" fill="#71c0fe">
    <animate attributeName="opacity" values="1;0" keyTimes="0;1" dur="0.9803921568627451s" begin="-0.8021390374331551s" repeatCount="indefinite"></animate>
  </rect>
</g><g transform="rotate(65.45454545454545 50 50)">
  <rect x="48.5" y="25.5" rx="1.5" ry="2.1" width="3" height="7" fill="#71c0fe">
    <animate attributeName="opacity" values="1;0" keyTimes="0;1" dur="0.9803921568627451s" begin="-0.7130124777183601s" repeatCount="indefinite"></animate>
  </rect>
</g><g transform="rotate(98.18181818181819 50 50)">
  <rect x="48.5" y="25.5" rx="1.5" ry="2.1" width="3" height="7" fill="#71c0fe">
    <animate attributeName="opacity" values="1;0" keyTimes="0;1" dur="0.9803921568627451s" begin="-0.6238859180035651s" repeatCount="indefinite"></animate>
  </rect>
</g><g transform="rotate(130.9090909090909 50 50)">
  <rect x="48.5" y="25.5" rx="1.5" ry="2.1" width="3" height="7" fill="#71c0fe">
    <animate attributeName="opacity" values="1;0" keyTimes="0;1" dur="0.9803921568627451s" begin="-0.53475935828877s" repeatCount="indefinite"></animate>
  </rect>
</g><g transform="rotate(163.63636363636363 50 50)">
  <rect x="48.5" y="25.5" rx="1.5" ry="2.1" width="3" height="7" fill="#71c0fe">
    <animate attributeName="opacity" values="1;0" keyTimes="0;1" dur="0.9803921568627451s" begin="-0.44563279857397503s" repeatCount="indefinite"></animate>
  </rect>
</g><g transform="rotate(196.36363636363637 50 50)">
  <rect x="48.5" y="25.5" rx="1.5" ry="2.1" width="3" height="7" fill="#71c0fe">
    <animate attributeName="opacity" values="1;0" keyTimes="0;1" dur="0.9803921568627451s" begin="-0.35650623885918004s" repeatCount="indefinite"></animate>
  </rect>
</g><g transform="rotate(229.0909090909091 50 50)">
  <rect x="48.5" y="25.5" rx="1.5" ry="2.1" width="3" height="7" fill="#71c0fe">
    <animate attributeName="opacity" values="1;0" keyTimes="0;1" dur="0.9803921568627451s" begin="-0.267379679144385s" repeatCount="indefinite"></animate>
  </rect>
</g><g transform="rotate(261.8181818181818 50 50)">
  <rect x="48.5" y="25.5" rx="1.5" ry="2.1" width="3" height="7" fill="#71c0fe">
    <animate attributeName="opacity" values="1;0" keyTimes="0;1" dur="0.9803921568627451s" begin="-0.17825311942959002s" repeatCount="indefinite"></animate>
  </rect>
</g><g transform="rotate(294.54545454545456 50 50)">
  <rect x="48.5" y="25.5" rx="1.5" ry="2.1" width="3" height="7" fill="#71c0fe">
    <animate attributeName="opacity" values="1;0" keyTimes="0;1" dur="0.9803921568627451s" begin="-0.08912655971479501s" repeatCount="indefinite"></animate>
  </rect>
</g><g transform="rotate(327.27272727272725 50 50)">
  <rect x="48.5" y="25.5" rx="1.5" ry="2.1" width="3" height="7" fill="#71c0fe">
    <animate attributeName="opacity" values="1;0" keyTimes="0;1" dur="0.9803921568627451s" begin="0s" repeatCount="indefinite"></animate>
  </rect>
</g>
<!-- [ldio] generated by https://loading.io/ --></svg>